<svg width="56" height="56" viewBox="0 0 56 56" fill="none" xmlns="http://www.w3.org/2000/svg">
<rect x="0.5" y="0.5" width="55" height="55" rx="27.5" fill="white"/>
<path fill-rule="evenodd" clip-rule="evenodd" d="M28.0001 13C19.7383 13 13 19.7382 13 28C13 36.2618 19.7383 43 28.0001 43C36.2618 43 43.0001 36.2617 43.0001 28C43.0001 19.7383 36.2618 13 28.0001 13ZM28.0001 39.8339C21.4821 39.8339 16.1661 34.5179 16.1661 28C16.1661 21.4821 21.4822 16.1661 28.0001 16.1661C34.5179 16.1661 39.834 21.4821 39.834 28C39.834 34.5179 34.518 39.8339 28.0001 39.8339ZM34.4039 23.0589C35.0319 23.6869 35.0319 24.7144 34.4039 25.3423L26.9121 32.8342C26.4652 33.2811 25.8909 33.4761 25.2643 33.3936C24.6377 33.3111 24.1334 32.9742 23.8174 32.4269L21.3401 28.1359C20.8961 27.3669 21.162 26.3744 21.9311 25.9303C22.7002 25.4863 23.6927 25.7522 24.1368 26.5213L25.7916 29.3878L32.1204 23.0589C32.7484 22.431 33.7759 22.431 34.4039 23.0589H34.4039Z" fill="url(#paint0_linear_164_7001)"/>
<rect x="0.5" y="0.5" width="55" height="55" rx="27.5" stroke="#E9E9E9"/>
<defs>
<linearGradient id="paint0_linear_164_7001" x1="28.0001" y1="43" x2="28.0001" y2="13" gradientUnits="userSpaceOnUse">
<stop stop-color="#1751FF"/>
<stop offset="1" stop-color="#17A0FF"/>
</linearGradient>
</defs>
</svg>
