<svg width="24" height="25" viewBox="0 0 24 25" fill="none" xmlns="http://www.w3.org/2000/svg">
<path d="M12 24.1666C10.3667 24.1666 8.84028 23.8604 7.42083 23.2479C6.00139 22.6354 4.76667 21.8041 3.71667 20.7541C2.66667 19.7041 1.84028 18.4646 1.2375 17.0354C0.634723 15.6062 0.333334 14.075 0.333334 12.4416C0.333334 10.8083 0.634723 9.28678 1.2375 7.87706C1.84028 6.46734 2.66667 5.23748 3.71667 4.18748C4.76667 3.13748 6.00139 2.31595 7.42083 1.7229C8.84028 1.12984 10.3667 0.833313 12 0.833313C13.6333 0.833313 15.1597 1.12984 16.5792 1.7229C17.9986 2.31595 19.2333 3.13748 20.2833 4.18748C21.3333 5.23748 22.1597 6.46734 22.7625 7.87706C23.3653 9.28678 23.6667 10.8083 23.6667 12.4416C23.6667 14.075 23.3653 15.6062 22.7625 17.0354C22.1597 18.4646 21.3333 19.7041 20.2833 20.7541C19.2333 21.8041 17.9986 22.6354 16.5792 23.2479C15.1597 23.8604 13.6333 24.1666 12 24.1666ZM12 22.475C12.6806 21.775 13.2493 20.9729 13.7062 20.0687C14.1632 19.1646 14.5375 18.0903 14.8292 16.8458H9.2C9.47222 18.0125 9.83681 19.0625 10.2937 19.9958C10.7507 20.9291 11.3194 21.7555 12 22.475ZM9.52083 22.125C9.03472 21.3861 8.61667 20.5889 8.26667 19.7333C7.91667 18.8778 7.625 17.9153 7.39167 16.8458H3.01667C3.75556 18.2264 4.61111 19.3104 5.58333 20.0979C6.55556 20.8854 7.86806 21.5611 9.52083 22.125ZM14.5083 22.0958C15.9083 21.6486 17.1674 20.9778 18.2854 20.0833C19.4035 19.1889 20.3028 18.1097 20.9833 16.8458H16.6375C16.3847 17.8958 16.0882 18.8486 15.7479 19.7041C15.4076 20.5597 14.9944 21.3569 14.5083 22.0958ZM2.43333 15.0958H7.07083C7.0125 14.5708 6.97847 14.0993 6.96875 13.6812C6.95903 13.2632 6.95417 12.85 6.95417 12.4416C6.95417 11.9555 6.96389 11.5229 6.98333 11.1437C7.00278 10.7646 7.04167 10.3416 7.1 9.87498H2.43333C2.29722 10.3416 2.20486 10.7597 2.15625 11.1291C2.10764 11.4986 2.08333 11.9361 2.08333 12.4416C2.08333 12.9472 2.10764 13.3993 2.15625 13.7979C2.20486 14.1965 2.29722 14.6291 2.43333 15.0958ZM8.87917 15.0958H15.15C15.2278 14.493 15.2764 14.0021 15.2958 13.6229C15.3153 13.2437 15.325 12.85 15.325 12.4416C15.325 12.0528 15.3153 11.6785 15.2958 11.3187C15.2764 10.959 15.2278 10.4778 15.15 9.87498H8.87917C8.80139 10.4778 8.75278 10.959 8.73333 11.3187C8.71389 11.6785 8.70417 12.0528 8.70417 12.4416C8.70417 12.85 8.71389 13.2437 8.73333 13.6229C8.75278 14.0021 8.80139 14.493 8.87917 15.0958ZM16.9 15.0958H21.5667C21.7028 14.6291 21.7951 14.1965 21.8437 13.7979C21.8924 13.3993 21.9167 12.9472 21.9167 12.4416C21.9167 11.9361 21.8924 11.4986 21.8437 11.1291C21.7951 10.7597 21.7028 10.3416 21.5667 9.87498H16.9292C16.9875 10.5555 17.0264 11.0757 17.0458 11.4354C17.0653 11.7951 17.075 12.1305 17.075 12.4416C17.075 12.8694 17.0604 13.2729 17.0312 13.6521C17.0021 14.0312 16.9583 14.5125 16.9 15.0958ZM16.6083 8.12498H20.9833C20.3417 6.78331 19.4618 5.66526 18.3437 4.77081C17.2257 3.87637 15.9375 3.24442 14.4792 2.87498C14.9653 3.59442 15.3785 4.3722 15.7187 5.20831C16.059 6.04442 16.3556 7.01665 16.6083 8.12498ZM9.2 8.12498H14.8583C14.6444 7.09442 14.2847 6.0979 13.7792 5.1354C13.2736 4.1729 12.6806 3.3222 12 2.58331C11.3778 3.10831 10.8528 3.79859 10.425 4.65415C9.99722 5.5097 9.58889 6.66665 9.2 8.12498ZM3.01667 8.12498H7.42083C7.63472 7.07498 7.90694 6.13678 8.2375 5.3104C8.56806 4.48401 8.98611 3.68192 9.49167 2.90415C8.03333 3.27359 6.75972 3.89581 5.67083 4.77081C4.58194 5.64581 3.69722 6.76387 3.01667 8.12498Z" fill="#848484"/>
</svg>
