<svg width="86" height="40" viewBox="0 0 86 40" fill="none" xmlns="http://www.w3.org/2000/svg">
<path d="M40.8997 21.8722V28.2852H42.9837V21.4555C42.9837 20.5911 42.7984 19.8271 42.428 19.1634C42.0575 18.4998 41.5481 17.9827 40.8997 17.6123C40.2668 17.2418 39.5336 17.0566 38.7 17.0566C37.8664 17.0566 37.1177 17.2496 36.454 17.6354C35.954 17.9145 35.5372 18.2723 35.2036 18.709V11.7549H33.1196V28.2852H35.2036V21.8722C35.2036 21.3165 35.3271 20.8226 35.5741 20.3905C35.821 19.9583 36.1607 19.6188 36.5929 19.3718C37.0251 19.1249 37.5191 19.0014 38.0748 19.0014C38.9084 19.0014 39.5876 19.2715 40.1124 19.8117C40.6373 20.3519 40.8997 21.0387 40.8997 21.8722Z" fill="black"/>
<path d="M46.6387 27.9148C47.3643 28.3161 48.1824 28.5167 49.0932 28.5167C50.0194 28.5167 50.8298 28.3161 51.5244 27.9148C52.2345 27.4981 52.7902 26.927 53.1916 26.2016C53.593 25.4761 53.7936 24.635 53.7936 23.678V17.2881H51.7097V23.5854C51.7097 24.4961 51.4781 25.2138 51.015 25.7385C50.5519 26.2479 49.9113 26.5025 49.0932 26.5025C48.5529 26.5025 48.0821 26.3868 47.6807 26.1553C47.2794 25.9237 46.9706 25.5919 46.7545 25.1597C46.5538 24.7121 46.4535 24.1874 46.4535 23.5854V17.2881H44.3695V23.678C44.3695 24.635 44.5702 25.4761 44.9716 26.2016C45.3729 26.927 45.9286 27.4981 46.6387 27.9148Z" fill="black"/>
<path fill-rule="evenodd" clip-rule="evenodd" d="M60.5231 28.5167C59.4271 28.5167 58.4391 28.2698 57.5592 27.7759C56.6793 27.2665 55.9847 26.5797 55.4753 25.7154C54.9659 24.851 54.7112 23.871 54.7112 22.7751C54.7112 21.6947 54.9581 20.7223 55.4521 19.858C55.9615 18.9937 56.6407 18.3145 57.4898 17.8206C58.3542 17.3113 59.319 17.0566 60.3841 17.0566C61.403 17.0566 62.2983 17.2881 63.0701 17.7512C63.8574 18.2142 64.4671 18.8547 64.8994 19.6728C65.347 20.4908 65.5709 21.4169 65.5709 22.451C65.5709 22.6053 65.5631 22.7751 65.5477 22.9603C65.5323 23.1301 65.5014 23.3307 65.4551 23.5623H56.8417C56.915 23.9905 57.0461 24.3841 57.2351 24.743C57.5438 25.3141 57.9837 25.7617 58.5549 26.0858C59.126 26.3945 59.7821 26.5488 60.5231 26.5488C61.1405 26.5488 61.704 26.4408 62.2134 26.2247C62.7382 26.0086 63.1859 25.6845 63.5564 25.2523L64.8994 26.6183C64.3745 27.2357 63.7262 27.7064 62.9543 28.0306C62.1979 28.3547 61.3875 28.5167 60.5231 28.5167ZM57.2119 20.7378C57.0389 21.0655 56.9169 21.4283 56.8459 21.8259H63.5398C63.4829 21.3707 63.3649 20.9694 63.1859 20.622C62.9235 20.0972 62.553 19.6959 62.0745 19.4181C61.5959 19.1248 61.017 18.9782 60.3378 18.9782C59.6277 18.9782 59.0026 19.1326 58.4623 19.4413C57.922 19.7499 57.5052 20.1821 57.2119 20.7378Z" fill="black"/>
<path d="M66.9169 27.5907C67.38 27.8839 67.8817 28.1154 68.422 28.2852C68.9777 28.4396 69.5643 28.5167 70.1818 28.5167C71.4167 28.5167 72.397 28.2158 73.1225 27.6138C73.8634 27.0119 74.2339 26.1938 74.2339 25.1597C74.2339 24.4806 74.0873 23.9327 73.794 23.516C73.5161 23.0992 73.1534 22.7674 72.7057 22.5204C72.258 22.2735 71.7872 22.0806 71.2932 21.9416C70.7993 21.7873 70.3207 21.6407 69.8576 21.5018C69.41 21.3629 69.0472 21.1931 68.7693 20.9924C68.4915 20.7918 68.3525 20.5062 68.3525 20.1358C68.3525 19.7654 68.5069 19.4798 68.8156 19.2792C69.1398 19.0631 69.6029 18.9551 70.2049 18.9551C70.7761 18.9551 71.2855 19.0631 71.7332 19.2792C72.1963 19.4953 72.5822 19.804 72.8909 20.2053L74.2339 18.8625C73.8017 18.2605 73.246 17.8129 72.5668 17.5197C71.903 17.211 71.1389 17.0566 70.2744 17.0566C69.4563 17.0566 68.7539 17.1878 68.1673 17.4502C67.5961 17.7126 67.1485 18.0907 66.8243 18.5846C66.5001 19.0631 66.3381 19.6342 66.3381 20.2979C66.3381 20.9616 66.477 21.494 66.7548 21.8953C67.0481 22.2966 67.4186 22.613 67.8663 22.8446C68.3139 23.0761 68.7848 23.269 69.2787 23.4234C69.7882 23.5623 70.2667 23.7089 70.7144 23.8632C71.162 24.0021 71.5248 24.1874 71.8026 24.4189C72.0959 24.635 72.2426 24.9437 72.2426 25.3449C72.2426 25.7462 72.0651 26.0627 71.71 26.2942C71.355 26.5103 70.8533 26.6183 70.2049 26.6183C69.5566 26.6183 68.97 26.5025 68.4452 26.271C67.9203 26.0241 67.4572 25.6536 67.0559 25.1597L65.7129 26.5025C66.0525 26.9193 66.4538 27.282 66.9169 27.5907Z" fill="black"/>
<path d="M72.283 13.5952V14.0055H71.789V15.2537H71.3201V14.0055H70.8262V13.5952H72.283Z" fill="black"/>
<path d="M74.2082 13.5703V15.2612H73.7393V14.4406L73.3958 14.826H73.2554L72.9119 14.4406V15.2612H72.443V13.5703H72.6085L73.3256 14.2914L74.0427 13.5703H74.2082Z" fill="black"/>
<path d="M13.1322 16.2897C13.7811 18.3701 15.9938 19.5307 18.0745 18.8818C20.1551 18.233 25.0831 14.8456 24.4342 12.7651C23.7853 10.6847 17.8052 10.699 15.7245 11.3478C13.6439 11.9967 12.4833 14.2092 13.1322 16.2897Z" fill="black"/>
<path d="M11.8778 27.6943C13.0991 28.9154 15.0789 28.9154 16.3001 27.6943C17.5213 26.4732 19.7323 22.2825 18.5113 21.0614C17.2901 19.8404 13.0991 22.0513 11.8778 23.2723C10.6566 24.4935 10.6566 26.4732 11.8778 27.6943Z" fill="black"/>
<path d="M23.5479 28.9029C25.6532 29.4669 27.8171 28.2177 28.3812 26.1126C28.9452 24.0076 28.7174 18.0325 26.6121 17.4684C24.5069 16.9044 21.3217 21.965 20.7575 24.0701C20.1934 26.175 21.4427 28.3388 23.5479 28.9029Z" fill="black"/>
</svg>
