<svg width="52" height="52" viewBox="0 0 52 52" fill="none" xmlns="http://www.w3.org/2000/svg">
<path d="M25.9998 0.166656C11.7915 0.166656 0.166504 11.7917 0.166504 26C0.166504 40.2083 11.7915 51.8333 25.9998 51.8333C40.2082 51.8333 51.8332 40.2083 51.8332 26C51.8332 11.7917 40.2082 0.166656 25.9998 0.166656ZM37.1082 19.8L25.2248 35.3C24.7082 35.8167 23.9332 36.3333 23.1582 36.3333C22.3832 36.3333 21.6082 36.075 21.0915 35.3L14.8915 27.2917C14.1165 26.2583 14.1165 24.45 15.4082 23.675C16.6998 22.9 18.2498 22.9 19.0248 24.1917L23.1582 29.6167L32.9748 16.7C33.7498 15.6667 35.5582 15.4083 36.5915 16.1833C37.8832 16.9583 37.8832 18.5083 37.1082 19.8Z" fill="#02BC7D"/>
</svg>
