<svg width="17" height="19" viewBox="0 0 17 19" fill="none" xmlns="http://www.w3.org/2000/svg">
<path d="M9.33337 4.16667L9.33337 10.8333L7.6667 10.8333L7.6667 4.16667L5.1667 4.16667L8.50004 -3.64262e-07L11.8334 4.16667L9.33337 4.16667ZM3.50004 3.33333L3.50004 5.59C2.65142 6.55224 2.09849 7.7389 1.90759 9.00761C1.71668 10.2763 1.89592 11.5731 2.42379 12.7425C2.95165 13.9119 3.80573 14.9041 4.88352 15.6001C5.96132 16.296 7.21705 16.6663 8.50004 16.6663C9.78302 16.6663 11.0388 16.296 12.1165 15.6001C13.1943 14.9041 14.0484 13.9119 14.5763 12.7425C15.1042 11.5731 15.2834 10.2763 15.0925 9.00761C14.9016 7.73891 14.3487 6.55224 13.5 5.59L13.5 3.33333C14.5357 4.10888 15.3763 5.11528 15.9549 6.27256C16.5336 7.42984 16.8343 8.70612 16.8334 10C16.8334 14.6025 13.1025 18.3333 8.50004 18.3333C3.89754 18.3333 0.166704 14.6025 0.166704 10C0.165733 8.70612 0.466516 7.42984 1.04516 6.27256C1.6238 5.11528 2.46435 4.10888 3.50004 3.33333Z" fill="#898989"/>
</svg>
