<svg width="14" height="14" viewBox="0 0 14 14" fill="none" xmlns="http://www.w3.org/2000/svg">
<path d="M1.375 12.6251H2.2L10.5062 4.31885L9.68125 3.49385L1.375 11.8001V12.6251ZM12.8875 3.5126L10.4875 1.1126L11.275 0.325098C11.4875 0.112598 11.75 0.00634766 12.0625 0.00634766C12.375 0.00634766 12.6375 0.112598 12.85 0.325098L13.675 1.1501C13.8875 1.3626 13.9937 1.6251 13.9937 1.9376C13.9937 2.2501 13.8875 2.5126 13.675 2.7251L12.8875 3.5126ZM12.1 4.3001L2.65 13.7501H0.25V11.3501L9.7 1.9001L12.1 4.3001ZM10.0937 3.90635L9.68125 3.49385L10.5062 4.31885L10.0937 3.90635Z" fill="#1C7CEE"/>
</svg>
