<svg width="161" height="40" viewBox="0 0 161 40" fill="none" xmlns="http://www.w3.org/2000/svg">
<path d="M129.806 12.5884C130.998 12.5884 131.965 11.6109 131.965 10.405C131.965 9.19925 130.998 8.22168 129.806 8.22168C128.614 8.22168 127.648 9.19925 127.648 10.405C127.648 11.6109 128.614 12.5884 129.806 12.5884Z" fill="#13284C"/>
<path d="M42.7148 14.1657H45.2138L45.7666 15.8695C46.872 14.4669 48.3729 13.7656 50.2694 13.7656C52.234 13.7656 53.7612 14.4669 54.8509 15.8695C55.8342 17.1466 56.3249 18.8328 56.3231 20.9278C56.3231 23.4308 55.6482 25.3572 54.2982 26.7068C53.1736 27.8426 51.7425 28.4106 50.0049 28.4106C48.2673 28.4106 46.8938 27.7631 45.8844 26.4683V32.8064H42.7148V14.1657ZM53.0854 20.9648C53.0854 19.3115 52.6995 18.0749 51.9276 17.2553C51.6077 16.932 51.2246 16.6797 50.8029 16.5146C50.3812 16.3494 49.9301 16.275 49.4784 16.2961C48.9446 16.2744 48.4133 16.3813 47.9282 16.608C47.4432 16.8346 47.0183 17.1746 46.6886 17.5998C46.0564 18.4335 45.7404 19.5428 45.7404 20.9278C45.7404 22.6695 46.1272 23.9661 46.9008 24.8176C47.2214 25.1677 47.6131 25.4437 48.0489 25.6266C48.4847 25.8095 48.9544 25.8951 49.426 25.8774C50.6388 25.8774 51.5583 25.4243 52.1922 24.5181C52.7877 23.672 53.0854 22.4876 53.0854 20.9648Z" fill="#13284C"/>
<path d="M61.5739 18.0793H58.2838C58.3741 17.4033 58.6124 16.7561 58.9812 16.1849C59.3501 15.6138 59.8403 15.1331 60.4161 14.7778C61.4866 14.1013 62.8295 13.7638 64.4448 13.7656C66.3902 13.7656 67.8816 14.2717 68.9189 15.2839C69.3647 15.7207 69.7147 16.2474 69.9462 16.8299C70.1777 17.4123 70.2856 18.0376 70.2627 18.6649V28.0131H67.7349L67.3394 26.3093C66.2689 27.7101 64.7504 28.4106 62.7841 28.4106C61.2228 28.4106 60.0127 27.9848 59.1535 27.1334C58.779 26.7645 58.4847 26.3206 58.2894 25.8301C58.0942 25.3397 58.0021 24.8134 58.0192 24.285C57.9934 23.7026 58.1068 23.1224 58.3498 22.5938C58.5929 22.0652 58.9585 21.6037 59.4154 21.2484C60.2589 20.5753 61.5686 20.0869 63.3447 19.7831L67.1037 19.1446V18.4795C67.1037 17.6448 66.8417 17.0248 66.2864 16.6246C65.7165 16.2236 65.0306 16.0268 64.3374 16.0656C62.7046 16.0585 61.7835 16.7298 61.5739 18.0793ZM67.1037 21.259L64.1279 21.7889C63.1098 21.985 62.3816 22.2562 61.9433 22.6024C61.7266 22.7728 61.5537 22.9935 61.4393 23.2458C61.3248 23.4981 61.2721 23.7746 61.2858 24.0518C61.2858 25.3466 62.0663 25.9949 63.6275 25.9967C64.1024 26.0085 64.5748 25.9252 65.0177 25.7515C65.4605 25.5778 65.865 25.3171 66.2078 24.9845C66.4912 24.7238 66.7174 24.4059 66.8717 24.0513C67.026 23.6966 67.105 23.3131 67.1037 22.9257V21.259Z" fill="#13284C"/>
<path d="M76.3526 28.0131H73.1934V14.1657H75.7997L76.1429 15.8165C77.1435 14.4493 78.5304 13.7656 80.3028 13.7656C81.9516 13.7656 83.2149 14.2806 84.0933 15.3104C84.8637 16.2166 85.2493 17.4531 85.2514 19.02V28.029H82.0921V19.0916C82.0921 17.1908 81.2186 16.2413 79.4724 16.2431C79.0367 16.2285 78.6031 16.3116 78.2027 16.4866C77.8023 16.6617 77.445 16.9241 77.1569 17.2553C76.6019 17.9037 76.3103 18.7405 76.3399 19.5976L76.3526 28.0131Z" fill="#13284C"/>
<path d="M87.3789 21.0629C87.3789 18.5404 88.1161 16.6317 89.5898 15.3369C90.8002 14.2911 92.3798 13.7674 94.3287 13.7656C96.599 13.7656 98.3453 14.4581 99.5676 15.843C100.706 17.1043 101.276 18.8442 101.278 21.0629C101.278 23.5819 100.558 25.4897 99.1199 26.7863C97.9096 27.8691 96.3123 28.4106 94.3287 28.4106C92.0811 28.4106 90.3348 27.704 89.0899 26.2908C87.9509 24.9907 87.381 23.2481 87.3789 21.0629ZM94.3471 26.0417C95.5934 26.0417 96.5234 25.5798 97.1364 24.6559C97.7154 23.8239 98.0063 22.6236 98.0063 21.0629C98.0063 19.2876 97.6201 17.9822 96.8483 17.1466C96.2339 16.4736 95.3915 16.1371 94.321 16.1371C93.0979 16.1371 92.1687 16.5893 91.531 17.4938C90.9336 18.3276 90.6349 19.5173 90.6349 21.0629C90.6349 22.8188 91.0212 24.1233 91.793 24.9766C92.1178 25.3293 92.514 25.6071 92.9553 25.7909C93.3959 25.9748 93.8705 26.0603 94.3471 26.0417Z" fill="#13284C"/>
<path d="M103.414 14.1657H105.916L106.469 15.8695C107.574 14.4669 109.074 13.7656 110.969 13.7656C112.937 13.7656 114.464 14.4669 115.55 15.8695C116.533 17.1466 117.025 18.8328 117.025 20.9278C117.025 23.4308 116.349 25.3572 114.998 26.7068C113.875 27.8426 112.444 28.4106 110.707 28.4106C108.969 28.4106 107.592 27.7631 106.573 26.4683V32.8064H103.414V14.1657ZM113.787 20.9648C113.787 19.3115 113.402 18.0749 112.63 17.2553C112.309 16.9323 111.927 16.6802 111.505 16.5151C111.083 16.3499 110.632 16.2753 110.18 16.2961C109.646 16.2744 109.115 16.3813 108.63 16.608C108.145 16.8346 107.72 17.1746 107.39 17.5998C106.757 18.4335 106.441 19.5428 106.442 20.9278C106.442 22.6695 106.828 23.9661 107.6 24.8176C107.921 25.1676 108.313 25.4435 108.75 25.6264C109.186 25.8093 109.656 25.8949 110.128 25.8774C111.338 25.8774 112.259 25.4243 112.891 24.5181C113.489 23.672 113.787 22.4876 113.787 20.9648Z" fill="#13284C"/>
<path d="M125.835 25.6683V28.0927C125.154 28.2957 124.448 28.4027 123.739 28.4107C122.387 28.4107 121.36 28.0027 120.658 27.1866C120.056 26.4959 119.755 25.564 119.755 24.3911V16.6142H117.701V14.1659H119.755L119.964 10.8379H122.914V14.1659H125.806V16.6142H122.911V24.4971C122.911 25.4219 123.375 25.8829 124.307 25.8829C124.823 25.8679 125.335 25.7959 125.835 25.6683Z" fill="#13284C"/>
<path d="M131.331 28.0124H128.172V14.165H131.331V28.0124Z" fill="#13284C"/>
<path d="M143.466 23.5113H146.835C146.727 24.2364 146.477 24.9325 146.1 25.5589C145.723 26.1854 145.227 26.7296 144.639 27.1599C143.516 27.9937 142.13 28.4106 140.479 28.4106C138.304 28.4106 136.618 27.7101 135.424 26.3093C134.355 25.0481 133.82 23.3523 133.818 21.2219C133.818 18.7365 134.503 16.8278 135.872 15.4958C137.067 14.3423 138.611 13.7656 140.506 13.7656C142.279 13.7656 143.743 14.2276 144.901 15.1514C145.901 15.9328 146.57 17.0695 146.772 18.3311H143.358C143.225 17.7126 142.881 17.1611 142.387 16.7731C141.87 16.3836 141.238 16.182 140.595 16.2007C140.078 16.1775 139.565 16.2933 139.107 16.5363C138.649 16.7793 138.263 17.1408 137.988 17.5838C137.428 18.4565 137.148 19.6992 137.148 21.312C137.148 22.9248 137.525 24.1613 138.279 25.0216C138.564 25.3418 138.913 25.5958 139.304 25.7659C139.695 25.9361 140.117 26.0185 140.542 26.0073C141.234 26.0353 141.913 25.8083 142.452 25.3687C142.987 24.8827 143.344 24.2282 143.466 23.5113Z" fill="#13284C"/>
<path d="M152.154 18.0793H148.863C148.954 17.4033 149.193 16.7561 149.561 16.1849C149.93 15.6138 150.421 15.1331 150.996 14.7778C152.065 14.1013 153.407 13.7638 155.022 13.7656C156.971 13.7656 158.463 14.2717 159.499 15.2839C159.944 15.7208 160.294 16.2476 160.525 16.8301C160.756 17.4126 160.864 18.0378 160.84 18.6649V28.0131H158.315L157.919 26.3093C156.849 27.7101 155.33 28.4106 153.364 28.4106C151.803 28.4106 150.591 27.9848 149.731 27.1334C149.357 26.764 149.064 26.3199 148.869 25.8296C148.674 25.3392 148.582 24.8132 148.599 24.285C148.573 23.7026 148.687 23.1224 148.93 22.5938C149.173 22.0652 149.539 21.6037 149.995 21.2484C150.835 20.5753 152.145 20.0869 153.924 19.7831L157.689 19.1446V18.4795C157.689 17.6448 157.427 17.0248 156.874 16.6246C156.304 16.2236 155.618 16.0268 154.925 16.0656C153.289 16.0585 152.365 16.7298 152.154 18.0793ZM157.681 21.259L154.707 21.7889C153.69 21.985 152.961 22.2562 152.523 22.6024C152.306 22.7726 152.133 22.9933 152.018 23.2456C151.903 23.4978 151.85 23.7743 151.863 24.0518C151.863 25.3466 152.645 25.9949 154.208 25.9967C154.682 26.0082 155.154 25.9248 155.597 25.7511C156.04 25.5773 156.445 25.3168 156.788 24.9845C157.07 24.7242 157.294 24.4073 157.448 24.0543C157.602 23.7011 157.681 23.3195 157.681 22.9336V21.259Z" fill="#13284C"/>
<path fill-rule="evenodd" clip-rule="evenodd" d="M30.0011 4.92316L15.6305 0.0450446C15.5335 0.0161529 15.433 0.000994236 15.3319 0C15.2317 0.000999428 15.132 0.0161605 15.0359 0.0450446L0.657492 4.92316C0.46593 4.99228 0.300057 5.11939 0.18242 5.28721C0.0647837 5.45503 0.0010915 5.65543 0 5.86116V24.2024C0 27.8696 2.1637 30.7021 5.01371 33.0896C6.91808 34.6794 9.15511 36.1367 11.421 37.6099C12.55 38.3439 13.6842 39.0806 14.7897 39.8436C14.9453 39.9478 15.127 40.0048 15.3136 40.0079C15.5001 40.0048 15.6818 39.9478 15.8375 39.8436C16.9429 39.0806 18.0771 38.3439 19.2061 37.6099C21.472 36.1367 23.7116 34.6953 25.6134 33.0896C28.4634 30.7049 30.6298 27.8696 30.6298 24.2024V5.86116C30.6305 5.65896 30.5709 5.46124 30.4587 5.29389C30.3465 5.12653 30.187 4.99731 30.0011 4.92316Z" fill="#1954A2"/>
<path d="M37.4158 25.734C37.4156 24.6454 37.08 23.5839 36.4555 22.6972C35.8311 21.8106 34.949 21.1429 33.9319 20.787C33.9476 20.6104 33.9555 20.4275 33.9555 20.2385C33.9547 18.7227 33.4247 17.2557 32.4591 16.0966C31.4934 14.9374 30.1542 14.1603 28.6774 13.9024C27.2007 13.6445 25.6813 13.9224 24.3873 14.6869C23.0934 15.4516 22.1078 16.6538 21.6046 18.0817C20.8616 17.7899 20.0619 17.6756 19.2681 17.7477C18.4742 17.8199 17.7076 18.0764 17.0279 18.4976C16.3481 18.9187 15.7738 19.4929 15.3494 20.1754C14.9252 20.8579 14.6624 21.6304 14.5817 22.4324C13.5736 22.7059 12.6984 23.341 12.1191 24.2192C11.5399 25.0975 11.2964 26.1589 11.434 27.2054C11.5716 28.252 12.0809 29.2122 12.8669 29.9067C13.6529 30.6014 14.6618 30.983 15.7055 30.9804H32.3628C33.716 30.9479 35.0027 30.3804 35.9473 29.3997C36.8918 28.4191 37.419 27.1032 37.4158 25.734Z" fill="white"/>
<path d="M15.7064 31.7333C14.5292 31.7297 13.3904 31.3094 12.4876 30.5454C11.5847 29.7813 10.9747 28.7216 10.7634 27.5502C10.5522 26.3788 10.753 25.1695 11.331 24.1321C11.9089 23.0949 12.8276 22.2949 13.9277 21.8711C14.076 21.0671 14.3855 20.3025 14.8372 19.6244C15.289 18.9462 15.8734 18.3689 16.5544 17.9282C17.2354 17.4874 17.9984 17.1926 18.7964 17.0618C19.5944 16.931 20.4105 16.9671 21.1942 17.1679C21.8854 15.6956 23.051 14.5051 24.4996 13.7917C25.9483 13.0784 27.5937 12.8848 29.1656 13.2426C30.7374 13.6006 32.1422 14.4886 33.1489 15.7611C34.1558 17.0334 34.7046 18.6144 34.7056 20.2441V20.2971C35.8671 20.8324 36.8262 21.7335 37.4395 22.8659C38.0529 23.9981 38.2874 25.3009 38.1082 26.5791C37.929 27.8575 37.3455 29.0429 36.4451 29.958C35.5448 30.8731 34.3758 31.469 33.1129 31.6564V31.72H32.3742L15.7064 31.7333ZM19.7299 18.4847C18.6301 18.4814 17.5686 18.8926 16.7525 19.6383C15.9363 20.384 15.4243 21.4105 15.3161 22.5176L15.2663 23.029L14.7738 23.1641C13.9463 23.3975 13.23 23.9256 12.757 24.6509C12.2838 25.3764 12.0858 26.2502 12.1994 27.1116C12.3129 27.973 12.7304 28.7639 13.3748 29.3385C14.0192 29.9132 14.8473 30.2329 15.7064 30.2389H32.1935H32.3454C33.395 30.2273 34.4064 29.8396 35.1999 29.1446C35.9934 28.4497 36.5176 27.4926 36.6791 26.4436C36.8406 25.3945 36.6291 24.3215 36.0821 23.4154C35.5351 22.5092 34.6882 21.8287 33.6918 21.4948L33.147 21.304L33.1968 20.7237C33.2124 20.5489 33.2177 20.3899 33.2177 20.2389C33.2132 18.902 32.743 17.6096 31.8898 16.5887C31.0365 15.5679 29.8548 14.8839 28.5524 14.657C27.25 14.4301 25.9102 14.6749 24.7685 15.3484C23.6269 16.0218 22.7564 17.0807 22.3101 18.339L22.0482 19.0624L21.3409 18.7974C20.8281 18.591 20.2818 18.4831 19.7299 18.4794V18.4847Z" fill="#02B9E8"/>
</svg>
