<svg width="39" height="40" viewBox="0 0 39 40" fill="none" xmlns="http://www.w3.org/2000/svg">
<path fill-rule="evenodd" clip-rule="evenodd" d="M30.3411 4.92218L15.8077 0.0450356C15.7096 0.0161497 15.6079 0.000994039 15.5056 0C15.4043 0.00099923 15.3035 0.0161573 15.2063 0.0450356L0.664944 4.92218C0.471212 4.99129 0.303458 5.11837 0.184488 5.28616C0.065518 5.45395 0.00110387 5.65431 0 5.86V24.1976C0 27.8641 2.18822 30.6961 5.07054 33.083C6.99649 34.6725 9.25888 36.1296 11.5504 37.6025C12.6923 38.3363 13.8393 39.0728 14.9573 39.8357C15.1146 39.9399 15.2985 39.9969 15.4871 40C15.6758 39.9969 15.8596 39.9399 16.017 39.8357C17.1349 39.0728 18.282 38.3363 19.4238 37.6025C21.7153 36.1296 23.9804 34.6884 25.9037 33.083C28.786 30.6988 30.9769 27.8641 30.9769 24.1976V5.86C30.9776 5.65784 30.9174 5.46016 30.8039 5.29284C30.6905 5.12551 30.5292 4.99632 30.3411 4.92218Z" fill="#1954A2"/>
<path d="M37.8416 25.7292C37.8414 24.6408 37.502 23.5796 36.8704 22.693C36.2389 21.8066 35.3468 21.139 34.3182 20.7832C34.3341 20.6066 34.3421 20.4238 34.3421 20.2348C34.3412 18.7192 33.8053 17.2526 32.8287 16.0937C31.8521 14.9347 30.4976 14.1578 29.0041 13.8999C27.5107 13.6421 25.9741 13.9199 24.6654 14.6843C23.3568 15.4488 22.3601 16.6508 21.8511 18.0784C21.0997 17.7866 20.291 17.6724 19.4882 17.7445C18.6853 17.8166 17.91 18.0732 17.2225 18.4942C16.5351 18.9152 15.9542 19.4893 15.5251 20.1717C15.096 20.8541 14.8303 21.6264 14.7487 22.4283C13.7292 22.7017 12.844 23.3367 12.2582 24.2147C11.6724 25.0928 11.4261 26.1541 11.5653 27.2003C11.7044 28.2467 12.2195 29.2067 13.0144 29.9011C13.8093 30.5956 14.8297 30.9772 15.8852 30.9746H32.7313C34.0998 30.942 35.4012 30.3747 36.3564 29.3942C37.3116 28.4138 37.8448 27.0981 37.8416 25.7292Z" fill="white"/>
<path d="M15.8849 31.7262C14.6944 31.7226 13.5427 31.3024 12.6296 30.5385C11.7165 29.7746 11.0996 28.7151 10.886 27.5439C10.6724 26.3727 10.8754 25.1637 11.4599 24.1265C12.0444 23.0894 12.9735 22.2896 14.0861 21.8659C14.236 21.0621 14.549 20.2976 15.0059 19.6196C15.4628 18.9416 16.0539 18.3645 16.7425 17.9238C17.4312 17.4831 18.2029 17.1883 19.01 17.0576C19.817 16.9268 20.6424 16.9629 21.4349 17.1636C22.1339 15.6917 23.3128 14.5014 24.7778 13.7882C26.2429 13.075 27.907 12.8814 29.4967 13.2392C31.0863 13.597 32.507 14.4849 33.5252 15.7571C34.5434 17.0292 35.0985 18.6099 35.0994 20.2393V20.2923C36.2741 20.8275 37.2442 21.7284 37.8644 22.8605C38.4847 23.9926 38.7219 25.295 38.5406 26.573C38.3594 27.8511 37.7693 29.0363 36.8587 29.9512C35.9482 30.8662 34.7659 31.4619 33.4888 31.6493V31.7129H32.7417L15.8849 31.7262ZM19.9541 18.4802C18.8418 18.4769 17.7682 18.888 16.9429 19.6336C16.1175 20.3791 15.5996 21.4054 15.4902 22.5123L15.4398 23.0236L14.9418 23.1587C14.1049 23.392 13.3805 23.92 12.9021 24.6452C12.4236 25.3705 12.2233 26.2442 12.3382 27.1054C12.453 27.9666 12.8752 28.7573 13.5269 29.3319C14.1787 29.9065 15.0161 30.2261 15.8849 30.232H32.5589H32.7126C33.774 30.2205 34.7969 29.8328 35.5994 29.138C36.4019 28.4432 36.932 27.4864 37.0953 26.4375C37.2587 25.3886 37.0448 24.3158 36.4916 23.4099C35.9384 22.5039 35.0819 21.8236 34.0742 21.4897L33.5232 21.2989L33.5735 20.7188C33.5894 20.544 33.5947 20.385 33.5947 20.234C33.5902 18.8974 33.1146 17.6053 32.2517 16.5846C31.3888 15.5639 30.1937 14.8801 28.8765 14.6533C27.5594 14.4265 26.2044 14.6712 25.0498 15.3445C23.8952 16.0178 23.0148 17.0765 22.5635 18.3345L22.2986 19.0577L21.5833 18.7929C21.0647 18.5865 20.5122 18.4786 19.9541 18.4749V18.4802Z" fill="#02B9E8"/>
</svg>
