<svg width="19" height="25" viewBox="0 0 19 25" fill="none" xmlns="http://www.w3.org/2000/svg">
<path d="M16.2017 7.54471H13.7999C13.3141 7.54471 12.9198 7.93837 12.9198 8.42472C12.9198 8.91108 13.3141 9.30474 13.7999 9.30474H16.2023C16.6875 9.30474 17.0823 9.69957 17.0823 10.1848V21.693C17.0823 22.1781 16.6875 22.573 16.2023 22.573H2.97335C2.48817 22.573 2.09334 22.1781 2.09334 21.693V10.1848C2.09334 9.69957 2.48817 9.30474 2.97335 9.30474H5.37579C5.86214 9.30474 6.2558 8.91108 6.2558 8.42472C6.2558 7.93837 5.86214 7.54471 5.37579 7.54471H2.97335C1.51781 7.54471 0.333313 8.72921 0.333313 10.1848V21.693C0.333313 23.1485 1.51781 24.333 2.97335 24.333H16.2023C17.6578 24.333 18.8423 23.1485 18.8423 21.693V10.1848C18.8417 8.72862 17.6578 7.54471 16.2017 7.54471ZM6.30625 5.76826L8.73685 3.33766V14.9233C8.73685 15.4091 9.13051 15.8033 9.61686 15.8033C10.1032 15.8033 10.4969 15.4091 10.4969 14.9233V3.33766L12.9275 5.76826C13.0994 5.94016 13.3246 6.02581 13.5499 6.02581C13.7752 6.02581 14.0005 5.94016 14.1724 5.76826C14.5162 5.42506 14.5162 4.86713 14.1724 4.52392L10.2399 0.590852C9.89553 0.24706 9.33878 0.24706 8.99499 0.590852L5.06191 4.52392C4.71812 4.86713 4.71812 5.42506 5.06191 5.76826C5.40571 6.11205 5.96246 6.11205 6.30625 5.76826Z" fill="#434343"/>
</svg>
