<svg width="127" height="129" viewBox="0 0 127 129" fill="none" xmlns="http://www.w3.org/2000/svg">
<path d="M53.0922 4.40747L4.1499 47.1872L54.7511 89.8463C59.8055 94.1074 67.1946 94.1074 72.2489 89.8463L122.85 47.1872L73.9078 4.40747C67.9473 -0.802491 59.0527 -0.802491 53.0922 4.40747Z" fill="#FF9100"/>
<path d="M102.189 17.4262H24.8109V102.853H102.189V17.4262Z" fill="white"/>
<path opacity="0.4" d="M62.5431 32.5803H34.4598C34.083 32.5803 33.7775 32.2748 33.7775 31.898V30.0908C33.7775 29.714 34.083 29.4085 34.4598 29.4085H62.5431C62.92 29.4085 63.2255 29.714 63.2255 30.0908V31.898C63.2255 32.2748 62.92 32.5803 62.5431 32.5803Z" fill="#808080"/>
<path opacity="0.4" d="M70.3249 40.5098H34.4598C34.083 40.5098 33.7775 40.2043 33.7775 39.8274V38.0203C33.7775 37.6434 34.083 37.338 34.4598 37.338H70.3249C70.7017 37.338 71.0072 37.6434 71.0072 38.0203V39.8275C71.0072 40.2043 70.7017 40.5098 70.3249 40.5098Z" fill="#808080"/>
<path opacity="0.4" d="M91.7734 40.5098H73.7896C73.4128 40.5098 73.1073 40.2043 73.1073 39.8275V38.0203C73.1073 37.6434 73.4128 37.338 73.7896 37.338H91.7734C92.1502 37.338 92.4557 37.6434 92.4557 38.0203V39.8275C92.4557 40.2043 92.1502 40.5098 91.7734 40.5098Z" fill="#808080"/>
<path opacity="0.4" d="M91.7734 32.5803H65.8044C65.4275 32.5803 65.122 32.2748 65.122 31.898V30.0908C65.122 29.714 65.4275 29.4085 65.8044 29.4085H91.7734C92.1502 29.4085 92.4557 29.714 92.4557 30.0908V31.898C92.4557 32.2748 92.1502 32.5803 91.7734 32.5803Z" fill="#808080"/>
<path opacity="0.4" d="M91.7734 57.7931H59.8342C59.4574 57.7931 59.1519 57.4876 59.1519 57.1108V55.3036C59.1519 54.9268 59.4574 54.6213 59.8342 54.6213H91.7734C92.1502 54.6213 92.4557 54.9268 92.4557 55.3036V57.1108C92.4557 57.4876 92.1502 57.7931 91.7734 57.7931Z" fill="#808080"/>
<path opacity="0.4" d="M62.5431 49.2293H34.4598C34.083 49.2293 33.7775 48.9238 33.7775 48.5469V46.7398C33.7775 46.3629 34.083 46.0574 34.4598 46.0574H62.5431C62.92 46.0574 63.2255 46.3629 63.2255 46.7398V48.5469C63.2255 48.9238 62.92 49.2293 62.5431 49.2293Z" fill="#808080"/>
<path opacity="0.4" d="M77.4298 49.2293H66.3442C65.9674 49.2293 65.6619 48.9238 65.6619 48.5469V46.7398C65.6619 46.3629 65.9674 46.0574 66.3442 46.0574H77.4298C77.8067 46.0574 78.1122 46.3629 78.1122 46.7398V48.5469C78.1122 48.9238 77.8067 49.2293 77.4298 49.2293Z" fill="#808080"/>
<path opacity="0.4" d="M91.7734 49.2293H81.2753C80.8985 49.2293 80.593 48.9238 80.593 48.5469V46.7398C80.593 46.3629 80.8985 46.0574 81.2753 46.0574H91.7734C92.1502 46.0574 92.4557 46.3629 92.4557 46.7398V48.5469C92.4557 48.9238 92.1502 49.2293 91.7734 49.2293Z" fill="#808080"/>
<path opacity="0.4" d="M55.7911 57.7931H34.4598C34.0829 57.7931 33.7774 57.4876 33.7774 57.1108V55.3036C33.7774 54.9268 34.0829 54.6213 34.4598 54.6213H55.7911C56.168 54.6213 56.4734 54.9268 56.4734 55.3036V57.1108C56.4735 57.4876 56.168 57.7931 55.7911 57.7931Z" fill="#808080"/>
<path opacity="0.4" d="M62.5431 66.9913H34.4598C34.083 66.9913 33.7775 66.6858 33.7775 66.309V64.5019C33.7775 64.125 34.083 63.8195 34.4598 63.8195H62.5431C62.92 63.8195 63.2255 64.125 63.2255 64.5019V66.309C63.2255 66.6858 62.92 66.9913 62.5431 66.9913Z" fill="#808080"/>
<path opacity="0.4" d="M82.1073 66.9913H65.8559C65.479 66.9913 65.1735 66.6858 65.1735 66.309V64.5019C65.1735 64.125 65.479 63.8195 65.8559 63.8195H82.1073C82.4841 63.8195 82.7896 64.125 82.7896 64.5019V66.309C82.7896 66.6858 82.4841 66.9913 82.1073 66.9913Z" fill="#808080"/>
<path d="M52.6337 88.0612L4.14989 47.1872C2.1612 49.0404 0.910156 51.6748 0.910156 54.6075V118.348C0.910156 121.427 2.28601 124.18 4.45037 126.041L55.9926 90.2526C54.812 89.6646 53.68 88.9433 52.6337 88.0612Z" fill="#FFBC00"/>
<path d="M126.09 118.348V54.6078C126.09 51.675 124.839 49.0406 122.85 47.1874L74.3663 88.0614C73.32 88.9435 72.188 89.6649 71.0074 90.2529L122.55 126.042C124.714 124.18 126.09 121.427 126.09 118.348Z" fill="#FFBC00"/>
<path d="M71.0074 90.2528L63.5 85.04L55.9926 90.2528L4.45035 126.042C6.22731 127.57 8.53405 128.5 11.0618 128.5H115.938C118.466 128.5 120.773 127.57 122.55 126.042L71.0074 90.2528Z" fill="#FC9C29"/>
</svg>
