<svg width="13" height="8" viewBox="0 0 13 8" fill="none" xmlns="http://www.w3.org/2000/svg">
<path d="M12.2971 1.89916L7.00336 7.56257C6.94034 7.62979 6.87207 7.67752 6.79855 7.70575C6.72503 7.73398 6.64625 7.74787 6.56222 7.74743C6.4782 7.74743 6.39942 7.73353 6.3259 7.70575C6.25237 7.67796 6.1841 7.63024 6.12108 7.56257L0.811635 1.89916C0.664588 1.74231 0.591064 1.54625 0.591064 1.31097C0.591064 1.0757 0.669839 0.874031 0.82739 0.705977C0.98494 0.537923 1.16875 0.453896 1.37882 0.453896C1.58888 0.453896 1.77269 0.537923 1.93024 0.705977L6.56222 5.64675L11.1942 0.705976C11.3413 0.549127 11.5225 0.470701 11.7381 0.470701C11.9536 0.470701 12.1399 0.554728 12.2971 0.722782C12.4546 0.890835 12.5334 1.0869 12.5334 1.31097C12.5334 1.53504 12.4546 1.7311 12.2971 1.89916Z" fill="white"/>
</svg>
