<svg width="8" height="14" viewBox="0 0 8 14" fill="none" xmlns="http://www.w3.org/2000/svg">
<path d="M1.91679 0.933317L7.53345 6.53332C7.60012 6.59998 7.64745 6.67221 7.67545 6.74998C7.70345 6.82776 7.71723 6.91109 7.71679 6.99998C7.71679 7.08887 7.70301 7.17221 7.67545 7.24998C7.6479 7.32776 7.60056 7.39998 7.53345 7.46665L1.91679 13.0833C1.76123 13.2389 1.56679 13.3167 1.33345 13.3167C1.10012 13.3167 0.90012 13.2333 0.733454 13.0667C0.566787 12.9 0.483453 12.7055 0.483453 12.4833C0.483453 12.2611 0.566787 12.0667 0.733453 11.9L5.63345 6.99998L0.733453 2.09998C0.577897 1.94443 0.500119 1.75265 0.500119 1.52465C0.500119 1.29665 0.583452 1.09954 0.750119 0.933317C0.916786 0.76665 1.11123 0.683317 1.33345 0.683317C1.55567 0.683317 1.75012 0.76665 1.91679 0.933317Z" fill="#393939"/>
</svg>
