<svg width="13" height="9" viewBox="0 0 13 9" fill="none" xmlns="http://www.w3.org/2000/svg">
<path d="M12.2973 2.39928L7.00361 8.06269C6.94059 8.12991 6.87232 8.17764 6.79879 8.20587C6.72527 8.2341 6.64649 8.248 6.56247 8.24755C6.47844 8.24755 6.39967 8.23366 6.32614 8.20587C6.25262 8.17809 6.18435 8.13036 6.12133 8.06269L0.811879 2.39928C0.664832 2.24243 0.591308 2.04637 0.591308 1.81109C0.591308 1.57582 0.670083 1.37415 0.827634 1.2061C0.985184 1.03805 1.16899 0.954019 1.37906 0.954019C1.58913 0.954019 1.77294 1.03805 1.93049 1.2061L6.56247 6.14688L11.1944 1.2061C11.3415 1.04925 11.5228 0.970823 11.7383 0.970823C11.9538 0.970823 12.1402 1.05485 12.2973 1.2229C12.4549 1.39096 12.5336 1.58702 12.5336 1.81109C12.5336 2.03516 12.4549 2.23123 12.2973 2.39928Z" fill="#0D274D"/>
</svg>
