<svg width="15" height="16" viewBox="0 0 15 16" fill="none" xmlns="http://www.w3.org/2000/svg">
<path d="M7.49992 0.5L14.1666 5.5V15.5H0.833252V5.5L7.49992 0.5ZM7.49992 10.5C8.19436 10.5 8.78464 10.2569 9.27075 9.77083C9.75686 9.28472 9.99992 8.69444 9.99992 8C9.99992 7.30556 9.75686 6.71528 9.27075 6.22917C8.78464 5.74306 8.19436 5.5 7.49992 5.5C6.80547 5.5 6.2152 5.74306 5.72908 6.22917C5.24297 6.71528 4.99992 7.30556 4.99992 8C4.99992 8.69444 5.24297 9.28472 5.72908 9.77083C6.2152 10.2569 6.80547 10.5 7.49992 10.5ZM7.49992 8.83333C7.26381 8.83333 7.06575 8.75333 6.90575 8.59333C6.74575 8.43333 6.66603 8.23556 6.66658 8C6.66658 7.76389 6.74659 7.56583 6.90659 7.40583C7.06659 7.24583 7.26436 7.16611 7.49992 7.16667C7.73603 7.16667 7.93409 7.24667 8.09409 7.40667C8.25409 7.56667 8.33381 7.76444 8.33325 8C8.33325 8.23611 8.25325 8.43417 8.09325 8.59417C7.93325 8.75417 7.73547 8.83389 7.49992 8.83333ZM7.49992 13C6.93047 13 6.37492 13.0694 5.83325 13.2083C5.29158 13.3472 4.7777 13.5556 4.29158 13.8333H10.7083C10.2221 13.5556 9.70825 13.3472 9.16658 13.2083C8.62492 13.0694 8.06936 13 7.49992 13ZM2.49992 6.33333V13C3.22214 12.4583 4.00686 12.045 4.85408 11.76C5.70131 11.475 6.58325 11.3328 7.49992 11.3333C8.41658 11.3333 9.29853 11.4758 10.1458 11.7608C10.993 12.0458 11.7777 12.4589 12.4999 13V6.33333L7.49992 2.58333L2.49992 6.33333Z" fill="#898989"/>
</svg>
