<svg width="27" height="28" viewBox="0 0 27 28" fill="none" xmlns="http://www.w3.org/2000/svg">
<path fill-rule="evenodd" clip-rule="evenodd" d="M20.9907 4.01005L11.3613 0.778618C11.2963 0.759479 11.229 0.749438 11.1612 0.748779C11.0941 0.749441 11.0273 0.759485 10.9629 0.778618L1.32826 4.01005C1.1999 4.05583 1.08876 4.14003 1.00993 4.25121C0.931105 4.36238 0.888427 4.49513 0.887695 4.63141V16.7813C0.887695 19.2106 2.33754 21.0869 4.24726 22.6684C5.52333 23.7216 7.02231 24.687 8.54061 25.6629C9.29715 26.1491 10.0572 26.6371 10.7979 27.1426C10.9021 27.2116 11.0239 27.2493 11.1489 27.2514C11.2739 27.2493 11.3957 27.2116 11.5 27.1426C12.2407 26.6371 13.0007 26.1491 13.7572 25.6629C15.2755 24.687 16.7763 23.7321 18.0506 22.6684C19.9603 21.0887 21.4119 19.2106 21.4119 16.7813V4.63141C21.4124 4.49746 21.3725 4.36649 21.2973 4.25563C21.2221 4.14477 21.1153 4.05917 20.9907 4.01005Z" fill="#1954A2"/>
<path d="M25.9603 17.796C25.9602 17.0749 25.7353 16.3718 25.3168 15.7844C24.8984 15.197 24.3073 14.7547 23.6258 14.519C23.6363 14.402 23.6416 14.2808 23.6416 14.1556C23.6411 13.1515 23.286 12.1797 22.6389 11.4119C21.9919 10.644 21.0944 10.1292 20.1049 9.95836C19.1154 9.78755 18.0973 9.97161 17.2302 10.4781C16.3632 10.9846 15.7028 11.781 15.3656 12.7269C14.8677 12.5336 14.3319 12.4579 13.8 12.5057C13.268 12.5534 12.7543 12.7234 12.2988 13.0024C11.8434 13.2813 11.4585 13.6617 11.1742 14.1138C10.8899 14.566 10.7138 15.0777 10.6597 15.609C9.98424 15.7901 9.39775 16.2108 9.00961 16.7926C8.62152 17.3744 8.45833 18.0775 8.55055 18.7708C8.64272 19.4641 8.98397 20.1001 9.51065 20.5602C10.0373 21.0203 10.7134 21.2732 11.4127 21.2715H22.5744C23.4811 21.2499 24.3434 20.874 24.9763 20.2243C25.6092 19.5747 25.9624 18.703 25.9603 17.796Z" fill="white"/>
<path d="M11.4119 21.7695C10.6231 21.7671 9.86002 21.4887 9.25502 20.9825C8.65003 20.4764 8.24131 19.7745 8.09974 18.9985C7.95821 18.2225 8.09274 17.4214 8.48002 16.7342C8.86731 16.0471 9.4829 15.5171 10.22 15.2364C10.3194 14.7039 10.5268 14.1973 10.8295 13.7481C11.1322 13.2989 11.5238 12.9165 11.9801 12.6245C12.4364 12.3325 12.9477 12.1372 13.4824 12.0506C14.0172 11.9639 14.564 11.9878 15.0891 12.1208C15.5523 11.1456 16.3333 10.3569 17.304 9.88436C18.2747 9.41186 19.3773 9.28358 20.4306 9.52064C21.4838 9.75774 22.4251 10.346 23.0997 11.1889C23.7743 12.0318 24.1421 13.0791 24.1428 14.1587V14.1938C24.9211 14.5484 25.5638 15.1453 25.9747 15.8954C26.3857 16.6454 26.5429 17.5084 26.4228 18.3552C26.3027 19.202 25.9117 19.9872 25.3084 20.5935C24.7051 21.1997 23.9218 21.5944 23.0756 21.7186V21.7607H22.5806L11.4119 21.7695ZM14.108 12.9932C13.371 12.9909 12.6597 13.2633 12.1129 13.7573C11.566 14.2513 11.2228 14.9313 11.1503 15.6647L11.117 16.0035L10.787 16.093C10.2325 16.2476 9.75251 16.5974 9.43554 17.0779C9.11852 17.5584 8.98584 18.1373 9.06192 18.7079C9.13801 19.2785 9.41775 19.8024 9.84956 20.1831C10.2814 20.5638 10.8362 20.7756 11.4119 20.7795H22.4595H22.5613C23.2646 20.7718 23.9423 20.515 24.474 20.0547C25.0057 19.5943 25.357 18.9603 25.4652 18.2654C25.5734 17.5704 25.4317 16.8596 25.0651 16.2594C24.6986 15.6591 24.1311 15.2083 23.4635 14.9871L23.0984 14.8608L23.1317 14.4764C23.1422 14.3605 23.1458 14.2552 23.1458 14.1552C23.1428 13.2696 22.8277 12.4134 22.256 11.7372C21.6842 11.0609 20.8924 10.6078 20.0197 10.4576C19.147 10.3073 18.2492 10.4694 17.4842 10.9155C16.7192 11.3616 16.1359 12.0631 15.8369 12.8966L15.6614 13.3758L15.1875 13.2003C14.8438 13.0636 14.4777 12.9921 14.108 12.9897V12.9932Z" fill="#02B9E8"/>
</svg>
