<svg width="104" height="40" viewBox="0 0 104 40" fill="none" xmlns="http://www.w3.org/2000/svg">
<path d="M20.0004 8.80762L8.80762 22.2387H18.8811L17.7618 31.1928L28.9545 17.7617H18.8811L20.0004 8.80762Z" fill="black"/>
<path d="M44.795 18.1718V22.3149H38.8187V27.9898H34.123V11.166H46.0505V15.3092H38.8187V18.1718H44.795Z" fill="black"/>
<path d="M52.5994 11.166V27.9898H48.2804V11.166H52.5994Z" fill="black"/>
<path d="M59.7257 14.807C60.3954 14.807 61.0482 14.9577 61.6844 15.259C62.3372 15.5436 62.8729 15.9118 63.2914 16.3638V15.1836H67.6104V27.9898H63.2914V25.8555C62.9734 26.5586 62.4879 27.1528 61.835 27.6383C61.1822 28.1238 60.3954 28.3665 59.4746 28.3665C58.5204 28.3665 57.6248 28.1238 56.7878 27.6383C55.9508 27.1528 55.2644 26.4079 54.7287 25.4035C54.2098 24.3823 53.9503 23.1017 53.9503 21.5616C53.9503 20.122 54.2098 18.8999 54.7287 17.8955C55.2644 16.8911 55.9675 16.1295 56.838 15.6105C57.7253 15.0748 58.6878 14.807 59.7257 14.807ZM60.6297 19.0255C60.0103 19.0255 59.4914 19.2766 59.0729 19.7788C58.6711 20.281 58.4702 20.8753 58.4702 21.5616C58.4702 22.248 58.6795 22.8255 59.098 23.2942C59.5165 23.763 60.0689 23.9973 60.7553 23.9973C61.1236 23.9973 61.5002 23.9052 61.8852 23.7211C62.2703 23.5202 62.5967 23.2273 62.8646 22.8422C63.1491 22.4405 63.2914 21.9299 63.2914 21.3105V20.0801C62.9231 19.7788 62.5046 19.5277 62.0359 19.3268C61.5839 19.1259 61.1152 19.0255 60.6297 19.0255Z" fill="black"/>
<path d="M74.3099 14.807C75.147 14.807 75.917 14.9325 76.6201 15.1836C77.3399 15.418 77.9175 15.7444 78.3527 16.1629V19.5528C77.9175 19.285 77.4236 19.0339 76.8712 18.7995C76.3188 18.5484 75.7245 18.4229 75.0884 18.4229C74.6866 18.4229 74.3267 18.5066 74.0086 18.674C73.7073 18.8246 73.5566 19.0674 73.5566 19.4022C73.5566 19.6365 73.6487 19.8123 73.8328 19.9295C74.017 20.0466 74.3769 20.1722 74.9126 20.3061L75.691 20.507C77.9175 21.0762 79.0307 22.2731 79.0307 24.0978C79.0307 24.9348 78.7796 25.6797 78.2774 26.3326C77.7919 26.9687 77.1474 27.4709 76.3439 27.8392C75.5571 28.1907 74.7033 28.3665 73.7826 28.3665C72.8284 28.3665 71.9412 28.2326 71.1209 27.9647C70.3006 27.6801 69.5975 27.337 69.0116 26.9352V23.5704C69.6143 23.9387 70.2923 24.2484 71.0456 24.4995C71.8156 24.7506 72.502 24.8762 73.1046 24.8762C73.5901 24.8762 73.9416 24.8176 74.1593 24.7004C74.3936 24.5832 74.5108 24.374 74.5108 24.0726C74.5108 23.8383 74.3769 23.6625 74.1091 23.5453C73.8412 23.4114 73.4562 23.2607 72.954 23.0933L71.6733 22.6916C70.7359 22.407 70.0495 21.9634 69.6143 21.3607C69.179 20.7414 68.9614 19.9881 68.9614 19.1008C68.9614 18.2136 69.1958 17.4519 69.6645 16.8158C70.1332 16.1797 70.7693 15.6858 71.5729 15.3343C72.3932 14.9828 73.3055 14.807 74.3099 14.807Z" fill="black"/>
<path d="M87.9399 14.807C89.2457 14.807 90.3087 15.2506 91.129 16.1378C91.966 17.0251 92.3845 18.3392 92.3845 20.0801V27.9898H88.0655L88.0404 20.7581C88.0404 20.122 87.8646 19.6784 87.513 19.4273C87.1615 19.1594 86.7681 19.0255 86.3329 19.0255C85.8641 19.0255 85.4707 19.1511 85.1527 19.4022C84.8346 19.6365 84.5584 19.9211 84.324 20.2559V27.9898H80.005V11.166H84.324V16.8409C84.7258 16.2885 85.2113 15.8114 85.7804 15.4096C86.3663 15.0079 87.0862 14.807 87.9399 14.807Z" fill="black"/>
<path d="M92.1689 11.2658V11.8H91.5257V13.4255H90.9152V11.8H90.272V11.2658H92.1689Z" fill="black"/>
<path d="M94.6757 11.2334V13.4352H94.0651V12.3667L93.6178 12.8686H93.435L92.9877 12.3667V13.4352H92.3772V11.2334H92.5927L93.5264 12.1724L94.4602 11.2334H94.6757Z" fill="black"/>
</svg>
