<svg width="56" height="56" viewBox="0 0 56 56" fill="none" xmlns="http://www.w3.org/2000/svg">
<path fill-rule="evenodd" clip-rule="evenodd" d="M43.4581 6.89105L23.1112 0.0630499C22.9739 0.0226095 22.8315 0.00139165 22.6884 0C22.5465 0.00139892 22.4054 0.0226202 22.2694 0.0630499L1.91139 6.89105C1.64016 6.9878 1.40531 7.16572 1.23875 7.40062C1.07219 7.63553 0.982014 7.91603 0.980469 8.20399V33.8767C0.980469 39.0098 4.04398 42.9745 8.07922 46.3162C10.7756 48.5415 13.9429 50.5814 17.1511 52.6435C18.7496 53.6709 20.3555 54.702 21.9207 55.77C22.141 55.9158 22.3983 55.9956 22.6625 56C22.9265 55.9956 23.1839 55.9158 23.4042 55.77C24.9693 54.702 26.5753 53.6709 28.1738 52.6435C31.3819 50.5814 34.553 48.5638 37.2457 46.3162C41.2809 42.9783 44.3482 39.0098 44.3482 33.8767V8.20399C44.3492 7.92097 44.2648 7.64422 44.1059 7.40997C43.9472 7.17572 43.7213 6.99485 43.4581 6.89105Z" fill="#1954A2"/>
<path d="M53.9576 36.0209C53.9573 34.4971 53.4821 33.0114 52.598 31.7702C51.7139 30.5292 50.4649 29.5946 49.0249 29.0965C49.0471 28.8492 49.0583 28.5933 49.0583 28.3287C49.0571 26.2069 48.3068 24.1536 46.9395 22.5312C45.5723 20.9086 43.6761 19.8209 41.5852 19.4599C39.4943 19.099 37.3431 19.4879 35.511 20.5581C33.679 21.6284 32.2835 23.3111 31.571 25.3097C30.519 24.9013 29.3868 24.7413 28.2628 24.8423C27.1389 24.9433 26.0534 25.3024 25.091 25.8919C24.1285 26.4813 23.3153 27.285 22.7145 28.2403C22.1138 29.1957 21.7418 30.2769 21.6275 31.3996C20.2002 31.7823 18.961 32.6714 18.1408 33.9006C17.3208 35.13 16.976 36.6157 17.1708 38.0805C17.3656 39.5454 18.0866 40.8893 19.1995 41.8615C20.3124 42.8338 21.7409 43.368 23.2186 43.3644H46.8033C48.7192 43.3189 50.541 42.5246 51.8784 41.1519C53.2157 39.7793 53.9621 37.9373 53.9576 36.0209Z" fill="white"/>
<path d="M23.2188 44.4176C21.5522 44.4126 19.9398 43.8243 18.6614 42.7548C17.3831 41.6853 16.5195 40.2021 16.2203 38.5625C15.9213 36.9228 16.2055 35.2301 17.0239 33.7781C17.8422 32.3262 19.1429 31.2064 20.7005 30.6132C20.9104 29.488 21.3486 28.4177 21.9883 27.4685C22.628 26.5193 23.4554 25.7112 24.4195 25.0943C25.3837 24.4774 26.4641 24.0646 27.594 23.8816C28.7238 23.6985 29.8793 23.749 30.9889 24.03C31.9675 21.9694 33.6179 20.3029 35.669 19.3044C37.7201 18.306 40.0498 18.0349 42.2754 18.5358C44.5008 19.0368 46.4898 20.2799 47.9152 22.0609C49.3408 23.8419 50.1179 26.0548 50.1192 28.336V28.4102C51.7638 29.1594 53.1218 30.4207 53.9901 32.0057C54.8586 33.5906 55.1906 35.414 54.9368 37.2032C54.6831 38.9926 53.8571 40.6518 52.5822 41.9327C51.3075 43.2136 49.6523 44.0477 47.8643 44.31V44.399H46.8184L23.2188 44.4176ZM28.9157 25.8733C27.3585 25.8686 25.8555 26.4442 24.7 27.488C23.5445 28.5318 22.8194 29.9686 22.6662 31.5182L22.5958 32.234L21.8985 32.4232C20.7268 32.7498 19.7126 33.489 19.0429 34.5043C18.373 35.5197 18.0926 36.7428 18.2534 37.9485C18.4142 39.1542 19.0053 40.2612 19.9177 41.0656C20.8301 41.87 22.0025 42.3175 23.2188 42.3258H46.5624H46.7776C48.2636 42.3096 49.6956 41.7669 50.8192 40.7942C51.9426 39.8215 52.6848 38.4819 52.9134 37.0135C53.1422 35.5451 52.8427 34.0432 52.0682 32.7748C51.2938 31.5065 50.0946 30.554 48.6839 30.0865L47.9124 29.8195L47.9829 29.0073C48.0051 28.7625 48.0126 28.54 48.0126 28.3286C48.0062 26.4574 47.3405 24.6483 46.1324 23.2194C44.9243 21.7905 43.2512 20.8331 41.4071 20.5155C39.5631 20.198 37.6661 20.5406 36.0497 21.4833C34.4332 22.4259 33.2008 23.9081 32.5689 25.6693L32.1981 26.6818L31.1967 26.311C30.4706 26.0221 29.6971 25.8711 28.9157 25.8659V25.8733Z" fill="#02B9E8"/>
</svg>
