<svg width="56" height="56" viewBox="0 0 56 56" fill="none" xmlns="http://www.w3.org/2000/svg">
<rect x="0.5" y="0.5" width="55" height="55" rx="27.5" fill="white"/>
<g clip-path="url(#clip0_164_6963)">
<path d="M41.2174 38.8053C43.0172 36.8743 43.9984 34.487 43.9984 31.9998C43.9984 28.8876 42.461 26.0691 39.9988 24.0693C39.9425 31.1999 33.237 36.9993 25.0003 36.9993H19.4259C21.5819 40.5552 25.9627 42.9987 30.9997 42.9987H42.9985C43.4047 42.9987 43.7672 42.7549 43.9234 42.38C44.0796 42.005 43.9921 41.5738 43.7047 41.2926L41.2174 38.8053Z" fill="#64B5F6"/>
<path d="M25.0003 13.0015C17.8323 13.0015 12.0016 17.9322 12.0016 24.0003C12.0016 26.4876 12.9828 28.8686 14.7826 30.8059L12.2953 33.2932C12.0079 33.5806 11.9204 34.0118 12.0766 34.3805C12.2329 34.7555 12.5953 34.9992 13.0015 34.9992H25.0003C32.1683 34.9992 37.999 30.0685 37.999 24.0003C37.999 17.9322 32.1683 13.0015 25.0003 13.0015Z" fill="#2196F3"/>
<path d="M30.9997 21.0005H19.0009C18.451 21.0005 18.001 21.4504 18.001 22.0004C18.001 22.5503 18.451 23.0003 19.0009 23.0003H30.9997C31.5496 23.0003 31.9996 22.5503 31.9996 22.0004C31.9996 21.4504 31.5496 21.0005 30.9997 21.0005Z" fill="#FAFAFA"/>
<path d="M27.0001 25H19.0009C18.451 25 18.001 25.45 18.001 25.9999C18.001 26.5498 18.451 26.9998 19.0009 26.9998H27.0001C27.55 26.9998 28 26.5498 28 25.9999C28 25.45 27.55 25 27.0001 25Z" fill="#FAFAFA"/>
</g>
<rect x="0.5" y="0.5" width="55" height="55" rx="27.5" stroke="#E9E9E9"/>
<defs>
<clipPath id="clip0_164_6963">
<rect width="32" height="32" fill="white" transform="translate(12 12)"/>
</clipPath>
</defs>
</svg>
