<svg width="123" height="40" viewBox="0 0 123 40" fill="none" xmlns="http://www.w3.org/2000/svg">
<path d="M50.9411 26.7676L50.9411 26.7675C50.656 26.5232 50.4924 26.2669 50.4775 25.998L50.4775 25.9982L50.5581 25.9935L50.4775 25.998L50.9411 26.7676ZM50.9411 26.7676L50.9425 26.7687C51.2525 27.0224 51.6892 27.1434 52.2409 27.1434H53.4486H53.5294V27.0626V26.9042V26.8235H53.4486H52.8422L52.6315 26.7852L52.6316 26.7848L52.6238 26.7842C52.4982 26.7737 52.3587 26.6888 52.2068 26.4997C52.0755 26.3072 52.0049 26.0294 52.0049 25.6569V19.46C52.0049 18.7992 51.8361 18.252 51.4921 17.8254L51.4921 17.8254L51.491 17.8241C51.2659 17.5568 50.913 17.3591 50.443 17.2247C49.9833 17.0762 49.3871 17.0034 48.6575 17.0034C47.9113 17.0034 47.227 17.2617 46.6069 17.7739C46.111 18.1728 45.7381 18.6003 45.4913 19.0569V17.1634V17.0826H45.4106H44.0247H43.944V17.1634V27.0626V27.1434H44.0247H45.4106H45.4913V27.0626V20.0341C45.4913 19.5397 45.808 18.9657 46.4768 18.3099L46.4774 18.3094C47.1375 17.6493 47.8766 17.3233 48.6971 17.3233C49.0971 17.3233 49.427 17.3877 49.6901 17.5126L50.9411 26.7676ZM42.696 14.1106L42.7704 14.1392L42.8 14.0652L42.8792 13.8672L42.911 13.7877L42.8297 13.7606C41.4759 13.3093 40.1408 13.0833 38.8248 13.0833C37.5203 13.0833 36.5268 13.3893 35.8595 14.0156C35.1946 14.6264 34.8636 15.4275 34.8636 16.411C34.8636 17.6519 35.3784 18.6145 36.4042 19.2896C36.8568 19.5957 37.3554 19.8749 37.8999 20.1272L37.8999 20.1272L37.9014 20.1279C38.4428 20.3656 38.9777 20.5967 39.5059 20.8212L39.5066 20.8215C40.0446 21.0446 40.5361 21.2871 40.9812 21.5489C41.9629 22.1302 42.4463 22.9303 42.4463 23.9542C42.4463 24.8922 42.0759 25.5985 41.3347 26.0842C40.5978 26.5625 39.7031 26.8037 38.6466 26.8037C37.9289 26.8037 37.2243 26.6993 36.5326 26.4906C35.8531 26.2684 35.3016 25.9886 34.8755 25.6529L34.8048 25.5972L34.7571 25.6735L34.6581 25.8319L34.6175 25.8968L34.6802 25.9408C35.8441 26.7569 37.2468 27.1632 38.8842 27.1632C39.7611 27.1632 40.5284 27.0635 41.1846 26.8626L41.1856 26.8623C41.8618 26.6459 42.4358 26.2401 42.907 25.6478C43.3815 25.0513 43.6175 24.3335 43.6175 23.4989C43.6175 22.6593 43.4777 21.9656 43.1926 21.4225C42.9101 20.8709 42.5386 20.4377 42.0773 20.1256C41.6242 19.8191 41.1249 19.5462 40.5797 19.3069C40.0369 19.0686 39.494 18.8567 38.951 18.6712C38.4261 18.4743 37.941 18.2645 37.4956 18.0418C36.5138 17.5249 36.0348 16.8039 36.0348 15.8765C36.0348 15.108 36.3213 14.5122 36.8936 14.0798C37.4688 13.6453 38.2743 13.423 39.3197 13.423C40.3771 13.423 41.5023 13.6515 42.696 14.1106ZM53.9524 18.3932L53.9519 18.3936C53.0356 19.3234 52.5824 20.6265 52.5824 22.2912C52.5824 23.9544 53.0217 25.201 53.9155 26.0136C54.8041 26.8214 55.9532 27.2226 57.3553 27.2226C58.7737 27.2226 59.9434 26.7601 60.8575 25.8326C61.7872 24.9028 62.247 23.5997 62.247 21.9348C62.247 20.2716 61.8078 19.0249 60.9139 18.2123C60.0252 17.4044 58.8695 17.0034 57.4543 17.0034C56.0488 17.0034 54.8794 17.4661 53.9524 18.3932ZM55.0641 18.6371L55.0644 18.6367C55.7111 17.7572 56.5196 17.3233 57.4939 17.3233C58.4732 17.3233 59.2547 17.6954 59.846 18.441C60.4366 19.1857 60.7393 20.3453 60.7393 21.9348C60.7393 23.5084 60.4113 24.73 59.7652 25.6089C59.1187 26.475 58.3102 26.9027 57.3355 26.9027C56.3563 26.9027 55.5748 26.5306 54.9834 25.7849C54.3928 25.0401 54.0902 23.8871 54.0902 22.311C54.0902 20.7238 54.4183 19.5025 55.0641 18.6371ZM75.7362 17.2251L75.6772 17.284L75.738 17.3411C75.9282 17.5193 76.0293 17.7853 76.0293 18.1533C76.0293 18.5248 75.9525 18.8404 75.8023 19.1031L75.8021 19.103L75.7991 19.1094L73.01 25.1494L70.0484 17.1354L70.0289 17.0826H69.9726H68.5868H68.4712L68.5109 17.1911L69.232 19.1595L66.4765 25.149L63.515 17.1354L63.4955 17.0826H63.4392H62.0534H61.9372L61.9777 17.1915L65.6601 27.0908L65.6797 27.1434H65.7358H65.9338H65.9858L66.0073 27.096L69.4108 19.6121L72.1935 27.0908L72.2131 27.1434H72.2692H72.4672H72.5192L72.5407 27.096L76.144 19.1767L76.1447 19.175C76.3068 18.7967 76.3888 18.4229 76.3888 18.0543C76.3888 17.9556 76.3749 17.8516 76.3479 17.7423C76.3316 17.6208 76.272 17.492 76.1778 17.357C76.1376 17.2901 76.0994 17.2343 76.0632 17.1909C76.0276 17.1481 75.9894 17.1117 75.9482 17.0911L75.8961 17.0651L75.855 17.1063L75.7362 17.2251Z" fill="black" stroke="black" stroke-width="0.161501"/>
<path d="M89.9977 22.2222C89.7276 22.2005 89.4311 22.1898 89.1083 22.1898C88.7494 22.1898 88.3579 22.2097 87.934 22.2494C87.9336 22.2494 87.9331 22.2495 87.9327 22.2495L89.9977 22.2222ZM89.9977 22.2222V19.0538C89.9935 19.0467 89.9902 19.0395 89.9877 19.0326C89.9799 19.0113 89.9779 18.9889 89.9779 18.9691C89.9779 18.9297 89.9863 18.8813 89.9998 18.8269C90.0204 18.7327 90.0013 18.607 89.9259 18.4437L89.9229 18.4371L89.9232 18.437C89.8597 18.2593 89.7707 18.0874 89.6557 17.9212C89.5498 17.7683 89.3555 17.6309 89.0591 17.5149L89.0563 17.5138L89.0563 17.5137C88.7666 17.3878 88.3827 17.3225 87.9006 17.3225C87.4219 17.3225 86.8554 17.4131 86.2 17.5966L86.1989 17.5969L86.1989 17.5969C85.5539 17.7681 85.0868 17.9376 84.7925 18.1039L84.7225 18.1435L84.6826 18.0737L84.6034 17.9351L84.5597 17.8586L84.6398 17.8217C85.8243 17.276 87.0303 17.0026 88.257 17.0026C88.9409 17.0026 89.5129 17.0639 89.9709 17.1885C90.4287 17.3131 90.7781 17.5023 91.0098 17.7621C91.3631 18.1563 91.545 18.5773 91.545 19.0236V25.6561C91.545 26.0286 91.6156 26.3064 91.747 26.4989C91.8988 26.6879 92.0383 26.7728 92.1639 26.7833L92.1717 26.784L92.1717 26.7843L92.3823 26.8226H92.9888H93.0695V26.9034V27.0618V27.1425H92.9888H92.375C91.474 27.1425 90.8311 26.9716 90.4768 26.6042C90.1718 26.3122 89.9977 26.0413 89.9977 25.7947V25.6717C89.691 26.1459 89.3107 26.513 88.8561 26.7707C88.3237 27.0725 87.6941 27.2217 86.9701 27.2217C86.1272 27.2217 85.4554 27.031 84.9647 26.6398C84.4732 26.248 84.1737 25.6632 84.0592 24.8965L89.9977 22.2222ZM79.4554 13.3459C79.8268 12.7764 80.4293 12.3352 81.2659 12.2962L81.0912 25.7936V25.7947C81.0912 25.9168 81.1292 26.0481 81.1987 26.1871C81.5238 26.8374 82.2993 27.1425 83.4685 27.1425H84.0822H84.163V27.0618V26.9034V26.8226H84.0822H83.4758L83.2652 26.7843L83.2652 26.784L83.2574 26.7833C83.1318 26.7728 82.9923 26.6879 82.8405 26.4989C82.7091 26.3064 82.6385 26.0286 82.6385 25.6561V12.2327V12.1533L82.5591 12.152L81.3491 12.1322L81.2681 12.1308L81.268 12.1332C79.9132 12.1576 78.9115 12.4762 78.2817 13.1058C77.6384 13.7356 77.3272 14.7854 77.3272 16.232V17.0818H76.9922H76.9114V17.1625V17.4824V17.5632H76.9922H77.3272V27.0618V27.1425H77.4079H78.7938H78.8746V27.0618V17.5632H80.3579H80.4386V17.4824V17.1625V17.0818H80.3579H78.8746V16.232C78.8746 14.8762 79.0728 13.9199 79.4549 13.3466L79.4554 13.3459ZM85.6053 24.8771L85.6053 24.8771L85.6052 24.8759C85.5922 24.7459 85.5858 24.6299 85.5858 24.5276C85.5858 23.9609 85.7337 23.5272 86.0199 23.2161C86.1589 23.065 86.3841 22.932 86.7043 22.8221C87.0236 22.7124 87.4315 22.6275 87.9296 22.5685C88.2829 22.5293 88.6362 22.5097 88.9895 22.5097C89.3313 22.5097 89.6674 22.521 89.9977 22.5437V24.8605C89.9596 25.2771 89.675 25.7268 89.115 26.2086C88.5747 26.6718 87.9662 26.9018 87.2869 26.9018C86.7787 26.9018 86.3922 26.7345 86.1163 26.406C85.8377 26.0741 85.664 25.5684 85.6053 24.8771ZM94.7528 12.2129V12.1321H94.6721H93.2862H93.2054V12.2129V27.0618V27.1425H93.2862H94.6721H94.7528V27.0618V22.3206L95.1987 21.8086L98.8025 27.1072L98.8265 27.1425H98.8693H100.255H100.408L100.322 27.0163L96.1006 20.812L99.2861 17.2161L99.405 17.0818H99.2256H99.0276H98.9913L98.9672 17.1089L94.7528 21.8598V12.2129ZM108.021 26.3568L107.99 26.2853L107.917 26.3132C106.899 26.705 105.734 26.9018 104.422 26.9018C103.511 26.9018 102.776 26.5316 102.21 25.7859C101.658 25.0411 101.375 23.8612 101.375 22.2309C101.375 21.8766 101.392 21.534 101.426 21.203H108.422H108.502V21.1222V21.1218V21.1214V21.1211V21.1207V21.1203V21.1199V21.1195V21.1191V21.1187V21.1183V21.118V21.1176V21.1172V21.1168V21.1164V21.116V21.1156V21.1153V21.1149V21.1145V21.1141V21.1137V21.1133V21.1129V21.1125V21.1122V21.1118V21.1114V21.111V21.1106V21.1102V21.1098V21.1095V21.1091V21.1087V21.1083V21.1079V21.1075V21.1071V21.1067V21.1064V21.106V21.1056V21.1052V21.1048V21.1044V21.104V21.1037V21.1033V21.1029V21.1025V21.1021V21.1017V21.1013V21.1009V21.1006V21.1002V21.0998V21.0994V21.099V21.0986V21.0982V21.0979V21.0975V21.0971V21.0967V21.0963V21.0959V21.0955V21.0951V21.0948V21.0944V21.094V21.0936V21.0932V21.0928V21.0924V21.0921V21.0917V21.0913V21.0909V21.0905V21.0901V21.0897V21.0893V21.089V21.0886V21.0882V21.0878V21.0874V21.087V21.0866V21.0863V21.0859V21.0855V21.0851V21.0847V21.0843V21.0839V21.0835V21.0832V21.0828V21.0824V21.082V21.0816V21.0812V21.0808V21.0805V21.0801V21.0797V21.0793V21.0789V21.0785V21.0781V21.0777V21.0774V21.077V21.0766V21.0762V21.0758V21.0754V21.075V21.0747V21.0743V21.0739V21.0735V21.0731V21.0727V21.0723V21.0719V21.0716V21.0712V21.0708V21.0704V21.07V21.0696V21.0692V21.0689V21.0685V21.0681V21.0677V21.0673V21.0669V21.0665V21.0661V21.0658V21.0654V21.065V21.0646V21.0642V21.0638V21.0634V21.0631V21.0627V21.0623V21.0619V21.0615V21.0611V21.0607V21.0603V21.06V21.0596V21.0592V21.0588V21.0584V21.058V21.0576V21.0573V21.0569V21.0565V21.0561V21.0557V21.0553V21.0549V21.0545V21.0542V21.0538V21.0534V21.053V21.0526V21.0522V21.0518V21.0514V21.0511V21.0507V21.0503V21.0499V21.0495V21.0491V21.0487V21.0484V21.048V21.0476V21.0472V21.0468V21.0464V21.046V21.0456V21.0453V21.0449V21.0445V21.0441V21.0437V21.0433V21.0429V21.0426V21.0422V21.0418V21.0414V21.041V21.0406V21.0402V21.0398V21.0395V21.0391V21.0387V21.0383V21.0379V21.0375V21.0371V21.0368V21.0364V21.036V21.0356V21.0352V21.0348V21.0344V21.034V21.0337V21.0333V21.0329V21.0325V21.0321V21.0317V21.0313V21.031V21.0306V21.0302V21.0298V21.0294V21.029V21.0286V21.0282V21.0279V21.0275V21.0271V21.0267V21.0263V21.0259V21.0255V21.0252V21.0248V21.0244V21.024V21.0236V21.0232V21.0228V21.0224V21.0221V21.0217V21.0213V21.0209V21.0205V21.0201V21.0197V21.0194V21.019V21.0186V21.0182V21.0178V21.0174V21.017V21.0166V21.0163V21.0159V21.0155V21.0151V21.0147V21.0143V21.0139V21.0136V21.0132V21.0128V21.0124V21.012V21.0116V21.0112V21.0108V21.0105V21.0101V21.0097V21.0093V21.0089V21.0085V21.0081V21.0078V21.0074V21.007V21.0066V21.0062V21.0058V21.0054V21.005V21.0047V21.0043V21.0039V21.0035V21.0031V21.0027V21.0023V21.002V21.0016V21.0012V21.0008V21.0004V21V20.9996V20.9992V20.9989V20.9985V20.9981V20.9977V20.9973V20.9969V20.9965V20.9962V20.9958V20.9954V20.995V20.9946V20.9942V20.9938V20.9934V20.9931V20.9927V20.9923V20.9919V20.9915V20.9911V20.9907V20.9904V20.99V20.9896V20.9892V20.9888V20.9884V20.988V20.9876V20.9873V20.9869V20.9865V20.9861V20.9857V20.9853V20.9849V20.9846V20.9842V20.9838V20.9834V20.983V20.9826V20.9822V20.9818V20.9815V20.9811V20.9807V20.9803V20.9799V20.9795V20.9791V20.9788V20.9784V20.978V20.9776V20.9772V20.9768V20.9764V20.976V20.9757V20.9753V20.9749V20.9745V20.9741V20.9737V20.9733V20.973V20.9726V20.9722V20.9718V20.9714V20.971V20.9706V20.9702V20.9699V20.9695V20.9691V20.9687V20.9683V20.9679V20.9675V20.9672V20.9668V20.9664V20.966V20.9656V20.9652V20.9648V20.9644V20.9641V20.9637V20.9633V20.9629V20.9625V20.9621V20.9617V20.9614V20.961V20.9606V20.9602V20.9598V20.9594V20.959V20.9586V20.9583V20.9579V20.9575V20.9571V20.9567V20.9563V20.9559V20.9556V20.9552V20.9548V20.9544V20.954V20.9536V20.9532V20.9528V20.9525V20.9521V20.9517V20.9513V20.9509V20.9505V20.9501V20.9498V20.9494V20.949V20.9486V20.9482V20.9478V20.9474V20.947V20.9467V20.9463V20.9459V20.9455V20.9451V20.9447V20.9443V20.944V20.9436V20.9432V20.9428V20.9424V20.942V20.9416V20.9412V20.9409V20.9405V20.9401V20.9397V20.9393V20.9389V20.9385V20.9382V20.9378V20.9374V20.937V20.9366V20.9362V20.9358V20.9354V20.9351V20.9347V20.9343V20.9339V20.9335V20.9331V20.9327V20.9324V20.932V20.9316V20.9312V20.9308V20.9304V20.93V20.9296V20.9293V20.9289V20.9285V20.9281V20.9277V20.9273V20.9269V20.9265V20.9262V20.9258V20.9254V20.925V20.9246V20.9242C108.502 19.6411 108.127 18.6589 107.366 17.9927C106.611 17.3317 105.68 17.0026 104.581 17.0026C103.214 17.0026 102.084 17.4658 101.196 18.3936C100.307 19.3236 99.8672 20.6263 99.8672 22.2903C99.8672 23.9525 100.286 25.1987 101.14 26.0115C101.988 26.8199 103.085 27.2217 104.422 27.2217C105.764 27.2217 106.968 27.0159 108.035 26.6025L108.113 26.5723L108.08 26.4954L108.021 26.3568ZM106.279 18.2022C106.728 18.7762 106.971 19.6652 106.993 20.8831H101.466C101.63 19.7764 101.99 18.9127 102.542 18.2853C103.124 17.6393 103.776 17.3225 104.502 17.3225C105.228 17.3225 105.819 17.614 106.279 18.2022Z" fill="black" stroke="black" stroke-width="0.161501"/>
<path d="M110.25 12.0053V12.5284H109.655V14.1197H109.091V12.5284H108.496V12.0053H110.25Z" fill="black"/>
<path d="M112.568 11.9736V14.1292H112.003V13.0831L111.59 13.5745H111.421L111.007 13.0831V14.1292H110.443V11.9736H110.642L111.505 12.8929L112.368 11.9736H112.568Z" fill="black"/>
<path fill-rule="evenodd" clip-rule="evenodd" d="M19.2761 23.619L19.2675 30.4181L20.7045 30.4199L20.7132 23.5869L23.3357 29.8959L24.6626 29.3443L22.0603 23.0837L26.8488 27.8845L27.8662 26.8696L23.0536 22.0447L29.3475 24.6568L29.8984 23.3295L23.6052 20.7177H30.4177V19.2806H23.6228L29.9027 16.687L29.3541 15.3587L23.0964 17.9432L27.9067 13.182L26.8958 12.1606L22.03 16.9768L24.6528 10.6507L23.3254 10.1004L20.7223 16.3787L20.731 9.58239L19.2939 9.58057L19.2853 16.4077L16.6646 10.1029L15.3376 10.6545L17.9419 16.9199L13.1509 12.1166L12.1334 13.1314L16.942 17.9523L10.6528 15.3422L10.102 16.6695L16.3936 19.2806H9.58057V20.7177H16.3787L10.0949 23.313L10.6434 24.6412L16.8952 22.0592L12.0862 26.819L13.0971 27.8404L17.9699 23.0174L15.3448 29.349L16.6722 29.8994L19.2761 23.619Z" fill="black"/>
</svg>
