<svg width="18" height="18" viewBox="0 0 18 18" fill="none" xmlns="http://www.w3.org/2000/svg">
<path d="M9.00008 13.1667C9.23619 13.1667 9.43425 13.0867 9.59425 12.9267C9.75369 12.7672 9.83341 12.5695 9.83341 12.3334V9.83335H12.3542C12.5904 9.83335 12.7848 9.75335 12.9376 9.59335C13.0904 9.43391 13.1667 9.23613 13.1667 9.00002C13.1667 8.76391 13.0867 8.56585 12.9267 8.40585C12.7673 8.24641 12.5695 8.16669 12.3334 8.16669H9.83341V5.64585C9.83341 5.40974 9.75369 5.2153 9.59425 5.06252C9.43425 4.90974 9.23619 4.83335 9.00008 4.83335C8.76397 4.83335 8.56619 4.91308 8.40675 5.07252C8.24675 5.23252 8.16675 5.43057 8.16675 5.66669V8.16669H5.64591C5.4098 8.16669 5.21536 8.24641 5.06258 8.40585C4.9098 8.56585 4.83341 8.76391 4.83341 9.00002C4.83341 9.23613 4.91314 9.43391 5.07258 9.59335C5.23258 9.75335 5.43064 9.83335 5.66675 9.83335H8.16675V12.3542C8.16675 12.5903 8.24675 12.7847 8.40675 12.9375C8.56619 13.0903 8.76397 13.1667 9.00008 13.1667ZM9.00008 17.3334C7.8473 17.3334 6.76397 17.1145 5.75008 16.6767C4.73619 16.2395 3.85425 15.6459 3.10425 14.8959C2.35425 14.1459 1.76064 13.2639 1.32341 12.25C0.885637 11.2361 0.666748 10.1528 0.666748 9.00002C0.666748 7.84724 0.885637 6.76391 1.32341 5.75002C1.76064 4.73613 2.35425 3.85419 3.10425 3.10419C3.85425 2.35419 4.73619 1.7603 5.75008 1.32252C6.76397 0.885298 7.8473 0.666687 9.00008 0.666687C10.1529 0.666687 11.2362 0.885298 12.2501 1.32252C13.264 1.7603 14.1459 2.35419 14.8959 3.10419C15.6459 3.85419 16.2395 4.73613 16.6767 5.75002C17.1145 6.76391 17.3334 7.84724 17.3334 9.00002C17.3334 10.1528 17.1145 11.2361 16.6767 12.25C16.2395 13.2639 15.6459 14.1459 14.8959 14.8959C14.1459 15.6459 13.264 16.2395 12.2501 16.6767C11.2362 17.1145 10.1529 17.3334 9.00008 17.3334ZM9.00008 15.6667C10.8473 15.6667 12.4204 15.0175 13.7192 13.7192C15.0176 12.4203 15.6667 10.8472 15.6667 9.00002C15.6667 7.1528 15.0176 5.57974 13.7192 4.28085C12.4204 2.98252 10.8473 2.33335 9.00008 2.33335C7.15286 2.33335 5.58008 2.98252 4.28175 4.28085C2.98286 5.57974 2.33341 7.1528 2.33341 9.00002C2.33341 10.8472 2.98286 12.4203 4.28175 13.7192C5.58008 15.0175 7.15286 15.6667 9.00008 15.6667Z" fill="#808080"/>
</svg>
