<svg width="34" height="24" viewBox="0 0 34 24" fill="none" xmlns="http://www.w3.org/2000/svg">
<rect x="0.5" y="0.5" width="33" height="23" rx="3.5" fill="white" stroke="#B2BCCA"/>
<path fill-rule="evenodd" clip-rule="evenodd" d="M10.7501 15.8587H8.69031L7.14576 9.79287C7.07245 9.51384 6.91679 9.26716 6.68782 9.1509C6.11639 8.85872 5.48672 8.6262 4.7998 8.50893V8.27539H8.11788C8.57583 8.27539 8.91929 8.6262 8.97653 9.03362L9.77793 13.4091L11.8367 8.27539H13.8392L10.7501 15.8587ZM14.9843 15.8568H13.0391L14.6409 8.27344H16.5861L14.9843 15.8568ZM19.1025 10.3753C19.1598 9.96689 19.5032 9.73335 19.9039 9.73335C20.5336 9.67471 21.2195 9.79199 21.7919 10.0831L22.1354 8.45042C21.563 8.21688 20.9333 8.09961 20.3619 8.09961C18.4739 8.09961 17.1 9.15002 17.1 10.6078C17.1 11.7169 18.0732 12.2992 18.7601 12.65C19.5032 12.9998 19.7894 13.2334 19.7322 13.5832C19.7322 14.1079 19.1598 14.3414 18.5883 14.3414C17.9014 14.3414 17.2145 14.1665 16.5858 13.8743L16.2424 15.5081C16.9293 15.7992 17.6725 15.9165 18.3594 15.9165C20.4764 15.9741 21.7919 14.9247 21.7919 13.3496C21.7919 11.3661 19.1025 11.2498 19.1025 10.3753ZM28.5995 15.8587L27.055 8.27539H25.3959C25.0525 8.27539 24.709 8.50893 24.5945 8.85872L21.7344 15.8587H23.7369L24.1366 14.7507H26.597L26.826 15.8587H28.5995ZM25.6827 10.3164L26.2541 13.1744H24.6523L25.6827 10.3164Z" fill="#28356A"/>
</svg>
